<?xml version="1.0" encoding="utf-8"?>
<!-- Generator: Adobe Illustrator 22.0.1, SVG Export Plug-In . SVG Version: 6.00 Build 0)  -->
<svg version="1.1" id="Layer_1" xmlns="http://www.w3.org/2000/svg" xmlns:xlink="http://www.w3.org/1999/xlink" x="0px" y="0px"
	 viewBox="0 0 611 153" style="enable-background:new 0 0 611 153;" xml:space="preserve">
<style type="text/css">
	.st0{fill:#161613;}
	.st1{fill:#FFFFFF;}
	.st2{fill:#B3B3AE;}
</style>
<path class="st0" d="M301.3,11.2c2.9,0,5.8,0,8.7,0.4c10.7,1.5,21,5.5,29.7,11.8c7.3,5.3,13.5,12.1,18,19.8c1.3,2.1,2.3,4.3,3.4,6.6
	c3.7,8.1,5.2,16.6,5.6,25.4c44.2,0,178.5,0,222.7,0c0.5,0,0.9,0,1.4,0.1c0,0.3,0,0.6-0.1,1c-0.8,0.2-1.7,0.1-2.5,0.1
	c-40.7,0-171.4,0-212.2,0c-3.1,0-6.2,0.1-9.3,0c-0.1,3-0.5,6-0.8,9c-0.5,3.3-1.3,6.7-2.3,9.9c-4.9,15.5-15.8,29.1-30,37
	c-7.8,4.5-16.6,7.2-25.5,8.1c-2.7,0.3-5.5,0.2-8.3,0.2c-4.1,0-8.1-0.6-12.1-1.5c-9.5-2.1-18.5-6.4-26.1-12.4
	c-4.7-3.7-8.9-8-12.4-12.8c-6.5-8.8-10.6-19.4-11.9-30.2c-0.4-2.4-0.1-4.8-0.4-7.2c-2.2,0-4.3,0-6.5-0.1c-41.1,0-172.3,0-213.4,0
	c-0.8,0-1.6,0-2.4,0c-0.7-0.5-0.3-1.2,0.5-1.2c42.7,0,175.5,0,218.2,0c1.2,0,2.5,0,3.7-0.1c0-2.9,0-5.7,0.5-8.6
	c1.2-7.5,3.5-14.7,7.1-21.3c8.2-15.3,22.8-27,39.5-31.7c2.2-0.6,4.4-1.1,6.7-1.5C294.3,11.4,297.8,11.2,301.3,11.2z"/>
<path class="st1" d="M308.4,12.6c12.5,1.2,24.7,6.4,34.3,14.5c2.9,2.4,5.5,5.1,7.9,7.9c7.1,8.3,11.9,18.6,13.9,29.3
	c0.5,2.6,0.9,5.2,0.8,7.8c0,2.6,0.1,5.1,0,7.7c-0.1,4.1-0.8,8-1.8,12c-2.7,10.4-8.1,20.2-15.5,28c-4.7,4.9-10.1,9.1-16.1,12.3
	c-7.9,4.2-16.6,6.7-25.5,7.4c-3.1,0.1-6.3,0.1-9.5,0c-8.5-0.7-16.9-3-24.5-6.9c-9-4.8-16.9-11.6-22.8-19.9
	c-5.7-8-9.5-17.4-10.9-27.2c-0.9-4.6-0.6-9.1-0.6-13.7c0.5-7.3,2.3-14.5,5.2-21.2c4-9.2,10.2-17.4,18-23.8
	c8.4-6.9,18.6-11.6,29.3-13.5C296.4,12.3,302.5,11.8,308.4,12.6z"/>
<path class="st2" d="M302.1,14.5c0.7,4.2,0.7,8.7,0,12.9c-1.4-2.8-1.1-5.6-1.1-8.6c0-1.3,0.2-2.6,0.8-3.7
	C301.9,15,302,14.7,302.1,14.5z"/>
<path class="st2" d="M305,14.6c0.4,2.3,0.3,4.4,0.2,6.7c0,1.1,0,2.2-0.2,3.2c-0.2,1-0.6,1.9-1,2.8c-0.3-2.3-0.2-4.7-0.1-7
	c0.1-1.7,0-3.4,0.7-5C304.7,15.1,304.9,14.9,305,14.6z"/>
<path class="st2" d="M295.1,15c0.7,1.2,1.2,2.5,1.4,3.9c0.4,2.6,0.3,5.3,0.6,7.9c-0.4,0.1-0.7,0.2-1.1,0.2
	C295.7,23.1,294.7,18.8,295.1,15z"/>
<path class="st2" d="M308.2,15.2c0.3,2.1,0.2,4.3,0,6.4c-0.2,1.9-0.6,4-1.3,5.8c-0.3-2.8-0.3-5.6,0.2-8.4
	C307.2,17.6,307.5,16.3,308.2,15.2z"/>
<path class="st2" d="M311.4,15.1c0.3,2.5-0.4,5.1-0.7,7.7c-0.2,1.8-0.5,3.6-1.6,5.2c-0.1-1.7-0.1-3.3,0.2-4.9
	C309.8,20.3,309.9,17.5,311.4,15.1z"/>
<path class="st2" d="M298.4,15.1c0.7,0.9,0.9,1.7,0.9,2.8c0.1,3,0.4,6.3-0.1,9.3c-1.3-3.4-1.3-7.6-1-11.2
	C298.3,15.7,298.4,15.4,298.4,15.1z"/>
<path class="st2" d="M291.8,15.6c0.2,0.2,0.4,0.4,0.6,0.6c1.2,1.4,1.1,3.4,1.4,5.1c0.4,2.2,0.6,4.4,0.2,6.6c-0.8-2-1.2-4.3-1.6-6.4
	C292.1,19.6,291.8,17.6,291.8,15.6z"/>
<path class="st2" d="M314.5,16c0,1.1-0.1,2.2-0.2,3.4c-0.4,3.1-1.1,6.2-2.4,9c-0.1-0.8-0.2-1.6-0.2-2.5c0.1-1.2,0.4-2.4,0.6-3.6
	c0.4-2,0.8-3.9,1.8-5.7C314.2,16.4,314.3,16.2,314.5,16z"/>
<path class="st2" d="M288.9,16c1.4,1.9,1.7,3.9,2.1,6.1c0.4,2,0.8,4,0.7,6.1c-1.2-1.8-1.7-3.9-2.1-6C289.2,20.2,288.8,18.2,288.9,16
	z"/>
<path class="st2" d="M317.6,16.6c0,1.5-0.2,2.9-0.5,4.4c-0.7,2.8-1.2,5.4-2.8,7.9c0-2.4,0.7-4.7,1.3-7C316,20,316.5,18.2,317.6,16.6
	z"/>
<path class="st2" d="M285.9,16.8c0.9,1.6,1.6,3.3,2.1,5c0.6,2.3,1.2,4.6,1.3,7c-1.6-2.2-2.1-4.5-2.8-7.1
	C286.1,20.2,285.8,18.5,285.9,16.8z"/>
<path class="st2" d="M320.8,17.5c-0.3,2.2-0.9,4.3-1.6,6.4c-0.6,2-1.4,4-2.6,5.7c0.2-2.9,1.1-5.4,1.9-8.1c0.4-1.3,1-2.5,1.8-3.6
	C320.5,17.9,320.7,17.7,320.8,17.5z"/>
<path class="st2" d="M282.5,17.6c0.2,0.2,0.5,0.4,0.7,0.6c0.9,0.9,1.3,2,1.7,3.2c0.9,2.7,1.9,5.4,2,8.3c-1-1.4-1.8-2.8-2.2-4.4
	C283.8,22.7,282.7,20.2,282.5,17.6z"/>
<path class="st2" d="M323.7,18.8c-0.2,2.7-1.4,5.4-2.4,7.9c-0.5,1.4-1.3,2.7-2.3,3.8c0.1-2.2,0.8-4,1.5-6c0.4-1,0.8-2.1,1.2-3.1
	C322.3,20.4,323,19.6,323.7,18.8z"/>
<path class="st2" d="M279.6,18.8c0.2,0.2,0.4,0.4,0.6,0.6c1.5,1.7,2,3.7,2.9,5.8c0.7,1.7,1.1,3.3,1,5.1
	C281.9,26.9,280.3,22.9,279.6,18.8z"/>
<path class="st2" d="M276.6,19.9c1,0.8,1.8,1.7,2.3,2.9c1.3,3,2.7,5.6,3.4,8.9c-0.6-0.6-1.2-1.1-1.7-1.8c-0.8-1.1-1.2-2.5-1.8-3.8
	c-0.8-1.7-1.7-3.6-2.1-5.4C276.7,20.5,276.6,20.2,276.6,19.9z"/>
<path class="st2" d="M326.7,19.8c-0.2,1.6-0.6,3.1-1.3,4.6c-1.1,2.4-2.1,4.9-3.7,6.9c0-1.9,0.6-3.7,1.4-5.4c0.9-1.9,1.7-4,3.1-5.7
	C326.3,20.2,326.5,20,326.7,19.8z"/>
<path class="st2" d="M273.7,21.5c1.2,0.9,2.1,2,2.7,3.4c1.3,2.6,2.7,5,3.4,7.9c-2.2-1.9-3.1-4.3-4.5-6.8
	C274.7,24.5,274.1,23,273.7,21.5z"/>
<path class="st2" d="M329.6,21.4c-0.9,3.8-3.2,7.2-5,10.7c-0.4-0.1-0.8-0.1-1.2-0.2c1.1-2.4,2.2-4.7,3.4-7c0.6-1.2,1.3-2.2,2.3-3
	C329.3,21.7,329.5,21.6,329.6,21.4z"/>
<path class="st2" d="M332.5,22.7c-0.5,1.5-1.1,3-1.8,4.4c-1.4,2.6-2.6,5-4.9,6.9c0.7-2.5,1.9-4.6,3.2-6.8
	C329.9,25.5,331.1,24,332.5,22.7z"/>
<path class="st2" d="M270.8,22.8c0.2,0.2,0.5,0.3,0.7,0.5c1.6,1.3,2.3,2.9,3.3,4.7c1.1,1.9,2.2,3.9,2.8,6c-1.5-1.3-2.6-2.8-3.5-4.5
	c-1-1.9-2.3-3.8-3-5.8C271,23.4,270.9,23.1,270.8,22.8z"/>
<path class="st2" d="M268.2,24.4c0.2,0.2,0.5,0.3,0.7,0.5c1.8,1.4,2.9,3.7,4.2,5.5c1,1.4,1.8,2.9,2,4.7c-1.9-1.8-3.2-4-4.7-6.2
	c-0.8-1.2-1.5-2.3-1.9-3.6C268.4,25,268.3,24.7,268.2,24.4z"/>
<path class="st2" d="M335,24.6c-0.5,2.8-2.2,4.5-3.6,6.8c-0.9,1.4-1.9,2.6-3.2,3.5c1.1-3.3,3.1-5.9,5.1-8.7
	C333.7,25.6,334.3,25.1,335,24.6z"/>
<path class="st2" d="M265.5,26.4c1.3,0.8,2.4,1.8,3.3,3c1.7,2.3,3.4,4.4,4.4,7.1c-1.6-1-2.8-2.4-3.9-4
	C267.9,30.5,266.4,28.7,265.5,26.4z"/>
<path class="st2" d="M337.9,26.3c-1,2.5-2.6,4.4-4.1,6.6c-1,1.4-2.2,2.7-3.6,3.6c0.9-2.5,2.8-4.7,4.3-6.9c0.8-1.1,1.7-2.2,2.9-3
	C337.5,26.6,337.7,26.4,337.9,26.3z"/>
<path class="st2" d="M340.4,28.3c-1.1,2.5-2.8,4.4-4.5,6.5c-1,1.2-2.1,2.4-3.3,3.4c0.2-0.8,0.4-1.5,0.8-2.2c0.7-1.2,1.8-2.3,2.6-3.4
	c1.1-1.4,2.2-2.8,3.7-3.8C340,28.5,340.2,28.4,340.4,28.3z"/>
<path class="st2" d="M263,28.3c0.3,0.2,0.6,0.3,0.8,0.5c1.9,1.3,3.1,3.1,4.6,4.9c1.1,1.3,2.1,2.8,2.8,4.4c-2.1-1.2-3.5-3-5-4.8
	c-1-1.3-2-2.5-2.8-4C263.2,28.9,263.1,28.6,263,28.3z"/>
<path class="st0" d="M319.3,33c13.3,5.4,23.8,17.2,27.4,31.1c0.8,3,1.1,5.9,1.5,9c0.3,2.7,0.1,5.3-0.3,8
	c-1.3,13.7-9.3,26.3-20.8,33.8c-6.7,4.4-14.5,7-22.6,7.5c-1.9,0.1-3.7,0.1-5.6,0c-6.5-0.4-12.8-2.2-18.5-5.2
	c-6.8-3.5-12.7-8.7-17-15.1c-4.3-6.3-7.1-13.6-7.8-21.2c-0.1-2.2-0.3-4.4-0.1-6.6c0.1-1.4,0-2.7,0.2-4.1c1.2-9.4,5.4-18.5,11.9-25.5
	c1.6-1.7,3.3-3.4,5.1-4.8c6.5-5.2,14.4-8.6,22.6-9.8C303.4,28.8,311.8,29.9,319.3,33z"/>
<path class="st2" d="M260.7,30.3c2.3,1.4,3.8,3.3,5.6,5.3c1.2,1.3,2.3,2.7,3.1,4.3c-2.8-1.5-4.5-4-6.7-6.2
	C261.7,32.6,261.1,31.5,260.7,30.3z"/>
<path class="st1" d="M303.5,30.7c3,0.3,6.1,0.6,9,1.3c4.7,1.2,9.2,3,13.3,5.6c4.3,2.7,8.2,6.2,11.4,10.2c5.3,6.7,8.7,14.8,9.6,23.3
	c0.2,3.3,0.2,6.7,0,10c-0.8,6.6-3,12.9-6.5,18.5c-4.7,7.6-11.7,13.9-19.9,17.5c-4.5,2-9.3,3.3-14.2,3.8c-3.2,0.2-6.4,0.3-9.5-0.1
	c-3.1-0.5-6.3-1.1-9.3-2.1c-7.5-2.5-14.3-7-19.5-12.9c-5.1-5.8-8.8-12.9-10.4-20.4c-2.7-12-0.2-25.1,6.9-35.2
	c4.2-6.2,10-11.3,16.6-14.7c5.3-2.7,11-4.4,16.9-4.8C299.8,30.6,301.7,30.5,303.5,30.7z"/>
<path class="st2" d="M342.8,30.3c-0.8,1.7-1.9,3.1-3.1,4.5c-1.6,1.8-3.4,3.7-5.4,5c0.7-1.5,1.6-2.8,2.7-4
	C338.8,33.6,340.4,31.6,342.8,30.3z"/>
<path class="st2" d="M345.2,32.5c-0.8,1.3-1.7,2.4-2.7,3.5c-2,2-3.7,3.9-6,5.4c0.8-2.6,2.7-3.9,4.5-5.8
	C342.2,34.4,343.6,33.3,345.2,32.5z"/>
<path class="st2" d="M258.4,32.7c2.5,1.1,4,3,5.9,4.8c1.3,1.2,2.4,2.6,3.2,4.2c-1.6-0.8-3-1.9-4.2-3.1c-1.6-1.6-3.3-3.1-4.4-5
	C258.7,33.2,258.6,32.9,258.4,32.7z"/>
<path class="st2" d="M347.1,34.8c-0.2,0.8-0.5,1.5-1,2.1c-1.1,1.2-2.4,2.1-3.5,3.3c-1.3,1.3-2.7,2.3-4.4,2.9c1.4-2,3.3-3.7,5.1-5.3
	C344.4,36.6,345.6,35.6,347.1,34.8z"/>
<path class="st2" d="M256.1,35c1.3,0.6,2.5,1.3,3.6,2.2c2.1,1.8,4.3,3.7,5.8,6c-1.7-0.8-3.1-1.7-4.5-3
	C259.2,38.7,257.4,37.1,256.1,35z"/>
<path class="st2" d="M349.5,37.2c-1.7,2.6-4.1,4.1-6.4,6.2c-1.1,0.9-2.3,1.6-3.7,2c1.6-2.2,3.8-4,6-5.7
	C346.7,38.7,347.9,37.7,349.5,37.2z"/>
<path class="st2" d="M254.1,37.4c0.3,0.1,0.6,0.3,0.9,0.4c1.9,0.9,3.3,2.1,4.9,3.4c1.5,1.2,3,2.5,4.1,4.1c-0.9-0.3-1.8-0.6-2.5-1.1
	c-1.2-0.8-2.3-1.9-3.5-2.8C256.5,40.3,255.1,39.1,254.1,37.4z"/>
<path class="st2" d="M351.4,39.7c-1,1.5-2.1,2.6-3.5,3.6c-2.1,1.6-4.1,3.1-6.7,3.9c1.8-2.2,4-3.6,6.2-5.3
	C348.6,41,350,40.2,351.4,39.7z"/>
<path class="st2" d="M252.1,39.9c0.3,0.1,0.5,0.2,0.8,0.3c2,0.8,3.6,2.1,5.4,3.4c1.6,1.1,3,2.3,4,3.9c-2.8-1-4.8-2.7-7.1-4.4
	C253.9,42.1,252.9,41.1,252.1,39.9z"/>
<path class="st2" d="M250.2,42.4c1.7,0.5,3.2,1.3,4.6,2.3c2.3,1.5,4.5,2.6,6.1,5c-2.9-1-5.3-2.9-8-4.5
	C251.8,44.5,251,43.6,250.2,42.4z"/>
<path class="st2" d="M353.2,42.4c-1.7,2.3-4,3.5-6.3,5c-1.4,0.9-2.9,1.7-4.4,2.3c0.9-1.2,1.9-2.3,3.1-3.1
	C348,45,350.3,43.3,353.2,42.4z"/>
<path class="st2" d="M248.5,45.5c2.9,0.2,4.7,1.8,7.1,3.1c1.5,0.8,2.8,1.8,3.9,3.1c-1.9-0.5-3.7-1.4-5.3-2.3c-1.8-1-3.4-1.9-5-3.3
	C249,45.9,248.8,45.7,248.5,45.5z"/>
<path class="st2" d="M354.8,45.4c-2,1.9-4.6,3.3-7,4.6c-1.2,0.7-2.6,1.2-3.9,1.6c1-1.2,2.1-2.1,3.4-2.9
	C349.8,47.4,351.8,45.8,354.8,45.4z"/>
<path class="st0" d="M294.4,47.9c1.2,0,2.3,0.3,3.5,0.3c1.3,0,2.6-0.3,3.9-0.5c0.1,0.5,0.2,0.9,0.3,1.4c-0.9,0.1-1.9,0.2-2.8,0.3
	c1.1,1.4,2.2,2.9,3.3,4.3c1.1-1.4,2.2-2.8,3.3-4.2c-1-0.2-2.1-0.4-3.1-0.7c0.4-0.4,0.8-0.7,1.2-1c2.2,0.5,4.3,0.4,6.5-0.1
	c0.1,0.4,0.1,0.9,0.2,1.3c-0.6,0.1-1.3,0.2-1.9,0.4c-0.6,0.2-0.9,0.6-1.3,1.1c-1.3,1.5-2.5,3-3.7,4.5c1.5,1.8,2.9,3.6,4.4,5.3
	c0.8,1,2.2,1.1,3.4,1.5c-0.5,0.5-1,1.1-1.8,1c-2.1-0.3-4.1-0.1-6.2,0.1c0-0.5-0.1-1-0.1-1.5c1-0.1,1.9-0.1,2.9-0.2
	c-1.2-1.6-2.5-3.2-3.8-4.8c-1.3,1.6-2.6,3.2-3.8,4.8c1.1,0.1,2.1,0.1,3.2,0.2c0,0.5,0,1-0.1,1.5c-2.5-0.4-5.2-0.3-7.7,0
	c-0.1-0.4-0.2-0.9-0.3-1.3c0.9-0.2,2.3-0.1,3-0.9c1.6-1.8,3.1-3.8,4.6-5.7c-1.4-1.6-2.6-3.2-4.1-4.8c-0.8-1-2.3-0.9-3.4-1.3
	C294.2,48.6,294.3,48.2,294.4,47.9z"/>
<path class="st2" d="M246.8,47.9c2.8,0.6,5,1.9,7.5,3.2c1.5,0.7,2.9,1.7,4,3c-2.9-0.6-5.4-2.1-8-3.3c-1.1-0.5-2.1-1.2-3-2.1
	C247.2,48.3,247,48.1,246.8,47.9z"/>
<path class="st2" d="M355.5,48.1c0.3-0.1,0.7-0.2,1-0.3c-1.1,1.2-2.3,2.2-3.7,2.9c-2.5,1.3-4.7,2.7-7.6,2.9c2.1-1.8,4.5-2.9,7-4.2
	C353.3,48.9,354.4,48.4,355.5,48.1z"/>
<path class="st0" d="M276.5,50.7c0.9,0.3,1.8,0.8,2.5,1.5c6.4,6.4,12.7,12.7,19.1,19.1c1.3,1.2,2.5,2.6,3.9,3.7
	c0.8-0.5,1.3-1.3,2-1.9c6.6-6.9,13.6-13.5,20.2-20.3c0.9-0.9,1.9-1.6,3-2.1c-0.8,2-2.4,3.2-3.8,4.7c-4.7,4.7-9.4,9.4-14.1,14.1
	c-2.2,2.1-4.3,4.3-6.5,6.4c0.4,0.4,0.8,0.9,1.2,1.3c6.7,6.8,13.5,13.5,20.3,20.3c1.2,1.1,2.2,2.3,3,3.7c-2.2-0.9-3.5-2.5-5-4.1
	c-6.6-6.5-13-13.2-19.7-19.6c-0.2-0.1-0.4-0.5-0.7-0.4c-0.7,0.5-1.2,1.2-1.8,1.8c-6.8,6.8-13.7,13.7-20.5,20.5
	c-0.8,0.8-1.7,1.5-2.7,2c0.4-1.1,1-2.1,1.9-2.9c1.4-1.4,2.9-2.8,4.3-4.2C288.8,88.1,295,82,301,75.8c-2.6-2.4-5.2-4.9-7.7-7.4
	c-1.7-1.8-3.6-3.5-5.4-5.3c-3-3-6-6-9-8.9C278,53.1,277.1,52,276.5,50.7z"/>
<path class="st2" d="M358,50.8c-2,1.9-4.4,2.8-6.8,3.9c-1.6,0.7-3.2,1.3-4.9,1.7c0.7-0.7,1.3-1.4,2.2-2c0.8-0.5,1.8-0.8,2.6-1.3
	C353.4,52.1,355.5,51.1,358,50.8z"/>
<path class="st2" d="M245.6,51.2c1.7,0,3.2,0.4,4.8,1.1c2.5,1.2,4.9,2.1,7,3.9c-1.9-0.1-3.6-0.7-5.3-1.5
	C249.9,53.7,247.7,52.8,245.6,51.2z"/>
<path class="st2" d="M244.3,53.7c2.8,0.4,5.2,1.5,7.8,2.5c1.6,0.6,3,1.4,4.4,2.5c-3.3-0.2-5.8-1.5-8.8-2.6
	C246.3,55.5,245.3,54.9,244.3,53.7z"/>
<path class="st2" d="M359,53.7c-1.2,1.2-2.6,2-4.2,2.6c-2.5,0.9-4.9,1.9-7.6,2.4c1.2-1.3,2.6-2.1,4.2-2.7
	C353.9,55.1,356.3,54.1,359,53.7z"/>
<path class="st2" d="M243.3,57c2.5,0.1,4.7,0.9,7.1,1.6c1.8,0.6,3.6,1.3,5.1,2.6c-2-0.3-4-0.9-5.9-1.5C247.4,59,245.3,58.4,243.3,57
	z"/>
<path class="st2" d="M359.9,56.9c-2.4,1.8-5,2.5-7.8,3.3c-1.3,0.4-2.7,0.7-4,0.9c0.9-0.9,1.8-1.7,3-2.1C354,58,357,57.1,359.9,56.9z
	"/>
<path class="st2" d="M360.7,59.5c-0.1,0.4-0.2,0.8-0.3,1.2c-0.6,0.3-1.3,0.4-1.9,0.6c-3.2,0.9-6.5,2-9.8,2.3c1.2-1,2.6-1.6,4.1-2
	C355.4,60.9,358,60.1,360.7,59.5z"/>
<path class="st2" d="M242.4,60c2.9,0,5.6,0.9,8.4,1.6c1.5,0.4,2.7,1,3.9,2c-2.3-0.1-4.4-0.8-6.6-1.3C246,61.8,244.1,61.4,242.4,60z"
	/>
<path class="st2" d="M241.9,62.9c2.2,0,4.2,0.6,6.4,1c2.1,0.4,4.1,0.9,6,1.9c-3.1,0.4-6.4-0.7-9.5-1.3
	C243.5,64.3,242.7,64,241.9,62.9z"/>
<path class="st2" d="M361.7,63.1c-3.7,1.9-8,2.6-12.1,2.8c2.2-1.7,4.7-1.9,7.4-2.5C358.5,63.1,360.1,63,361.7,63.1z"/>
<path class="st2" d="M361.9,65.8c0.1,0.4,0.1,0.7,0.2,1.1c-1.6,0.3-3.2,0.6-4.9,0.9c-2.5,0.4-4.9,0.8-7.4,0.7
	c1.1-0.7,2.3-1.2,3.6-1.5C356.2,66.5,359,66.2,361.9,65.8z"/>
<path class="st2" d="M240.9,66.3c3-0.2,5.9,0.3,8.8,0.8c1.4,0.2,2.7,0.8,3.9,1.6c-1.2,0.1-2.4,0-3.6-0.1
	C246.9,68.1,243.8,67.8,240.9,66.3z"/>
<path class="st0" d="M283.9,68.1c0.2,2.4,0.1,4.9,0.1,7.3c-0.5-0.1-1-0.1-1.4-0.2c-0.1-1.2-0.1-2.9-0.8-3.9
	c-1.5-1.9-4.8-1.7-6.3,0.3c-1.2,1.5-1.4,3.5-1.3,5.3c0,1.8,0.5,3.6,1.7,4.9c1.6,1.7,4.6,1.6,6.1-0.1c0.7-0.9,0.8-2.4,1-3.6
	c0.5,0,1,0.1,1.5,0.1c0,1,0,2-0.4,3c-0.5,1.1-1.4,2.1-2.5,2.6c-2.4,1.2-5.8,0.8-7.6-1.2c-1.4-1.5-2-3.7-2-5.7c0-2.2,0.4-4.4,1.8-6.1
	c1.3-1.7,3.6-2.5,5.7-2.2c1.1,0.2,2,0.9,2.9,1.5C282.7,69.3,283,68.6,283.9,68.1z"/>
<path class="st0" d="M322.3,69.1c0.9,0,1.7,0.1,2.6,0.2c1.3,0.2,2.5-0.2,3.9-0.3c0.4,0.3,0.8,0.7,1.2,1c-1.1,0.3-2.2,0.5-3.2,0.8
	c-0.2,3.8-0.2,7.7,0,11.5c1.1,0.2,2.2,0.3,3.3,0.6c-0.4,0.4-0.8,0.7-1.3,1.1c-2.2-0.3-4.4-0.2-6.6,0.1c-0.1-0.5-0.2-1-0.2-1.5
	c0.9,0,1.8,0,2.6,0c0.3-4,0.2-7.8,0.1-11.8c-1-0.2-2-0.4-3-0.6C321.8,69.8,322.1,69.5,322.3,69.1z"/>
<path class="st2" d="M362.1,69.1c-0.1,0.4-0.1,0.8-0.2,1.2c-4.2,0-7.7,1.2-11.8,0.7c2-1.2,4.1-1.4,6.4-1.6
	C358.3,69.3,360.2,69.2,362.1,69.1z"/>
<path class="st2" d="M241.5,69.3c3.9,0,8,0.3,11.8,1.5c-1.4,0.5-2.7,0.7-4.2,0.4c-2.5-0.4-5.1-0.6-7.7-1
	C241.4,69.9,241.4,69.6,241.5,69.3z"/>
<path class="st2" d="M363.3,72.5c-1.4,0.6-2.8,1.1-4.4,1.2c-2.8,0.2-5.8,0.4-8.5-0.2C354.5,72.1,359,71.8,363.3,72.5z"/>
<path class="st2" d="M241.2,72.4c2.2-0.4,4.3,0,6.5,0.1c1.8,0.2,3.6,0.3,5.3,0.7c-2,0.9-4.4,0.7-6.6,0.6c-1.3-0.1-2.6,0-3.8-0.2
	c-0.9-0.1-1.6-0.6-2.3-1.1C240.6,72.5,240.9,72.5,241.2,72.4z"/>
<path class="st2" d="M243.8,75.2c3-0.1,6.2-0.1,9.2,0.7c-4,1.1-8.6,0.9-12.7,0.3C241.4,75.6,242.6,75.2,243.8,75.2z"/>
<path class="st2" d="M354,75.2c3-0.1,6.2-0.1,9.2,0.7c-4,1.1-8.5,0.9-12.6,0.3C351.7,75.6,352.8,75.2,354,75.2z"/>
<path class="st2" d="M352.4,77.9c0.7-0.1,1.5-0.1,2.2-0.1c2.9,0.1,5.8,0.3,8.5,1.1c-2,0.7-4,0.7-6.1,0.6c-2.2-0.2-4.3-0.5-6.5-0.8
	C351.1,78.4,351.7,78,352.4,77.9z"/>
<path class="st2" d="M246.7,78.2c2.2-0.2,4.3-0.2,6.4,0.1c-1.3,0.6-2.6,1.1-4,1.2c-1.7,0.1-3.4,0.2-5.1,0.2c-1.2,0-2.4,0-3.6-0.4
	C242.5,78.4,244.5,78.4,246.7,78.2z"/>
<path class="st2" d="M253.2,81c-1.3,0.8-2.7,1.2-4.3,1.3c-2.6,0.1-5.1,0.5-7.6,0.8c0-0.4,0.1-0.9,0.1-1.3
	C245.2,81.2,249.3,80.6,253.2,81z"/>
<path class="st2" d="M350.2,80.9c4.1-0.2,8.5-0.1,12.3,1.3c-2.4,0.3-4.8,0.3-7.1,0C353.6,82,351.9,81.6,350.2,80.9z"/>
<path class="st2" d="M253.3,83.2c-0.1,0.4-0.3,0.8-0.4,1.2c-3.8,0.7-7.6,1.4-11.4,1.7c0.2-0.4,0.3-0.8,0.5-1.2
	C245.8,84.3,249.5,83.5,253.3,83.2z"/>
<path class="st2" d="M349.8,83.3c0.3,0,0.5,0,0.8,0c3.9,0.1,8.3,0.5,11.9,2.2c-2.6,0.3-5.1-0.1-7.7-0.5
	C353,84.7,351.3,84.3,349.8,83.3z"/>
<path class="st2" d="M350,85.6c3.8,0.7,8.2,1.2,11.7,3c-3.8,0.4-7.9-1.1-11.5-1.9C350.1,86.4,350.1,86,350,85.6z"/>
<path class="st2" d="M252.8,85.9c0.5-0.1,0.9,0.6,1.2,0.8c-3.9,0.9-8.2,2.3-12.2,2.2c1.5-0.9,3.1-1.5,4.8-1.8
	C248.7,86.6,250.7,86.1,252.8,85.9z"/>
<path class="st2" d="M348.8,88.3c2.8,0.2,5.6,1,8.4,1.8c1.6,0.4,2.9,1,4.3,1.9c-2.9-0.1-5.4-0.9-8.2-1.6c-1.3-0.3-2.6-0.8-3.8-1.6
	C349.3,88.6,349,88.5,348.8,88.3z"/>
<path class="st2" d="M254.7,88.6c-2.1,1.5-4.8,2-7.3,2.7c-1.6,0.5-3.3,0.8-5,0.7c1.2-0.9,2.5-1.4,4-1.8
	C249.1,89.4,251.8,88.6,254.7,88.6z"/>
<path class="st2" d="M348.2,90.6c2.6,0.4,5,1.3,7.6,2.1c1.6,0.5,3,1.2,4.3,2.3c-2.9-0.2-5.6-1.3-8.3-2.1c-1.1-0.3-2.2-0.8-3-1.6
	C348.6,91,348.4,90.8,348.2,90.6z"/>
<path class="st2" d="M255.2,90.9c-0.7,0.7-1.5,1.4-2.5,1.7c-3.1,1-6.2,2.2-9.4,2.5c2.4-2,5.1-2.7,8.1-3.5
	C252.7,91.3,253.9,91,255.2,90.9z"/>
<path class="st0" d="M303.1,91.2c1.3,0.1,2.7,0.5,4.1,0.4c0.7-0.1,1.5-0.2,2.2-0.2c0.5,0.1,0.9,0.5,1.3,0.8c-1,0.5-2.7,0.8-3,2
	c-1.4,3.7-2.4,7.4-3.8,11.1c-0.2,0.4-0.3,0.9-0.7,1.3c-0.4,0.3-1,0.4-1.4,0.3c-0.7-0.5-1-1.4-1.3-2.1c-1-2.8-2-5.7-2.9-8.5
	c-0.3-0.9-0.6-1.8-1-2.6c-0.1-0.2-0.3-0.5-0.6-0.6c-0.8-0.2-1.7-0.3-2.6-0.5c0.2-0.4,0.4-0.9,0.8-1.1c1.4,0,2.6,0.5,3.9,0.3
	c1.1-0.1,2.1-0.3,3.2-0.5c0.1,0.5,0.1,1,0.2,1.4c-0.9,0.1-1.8,0.2-2.7,0.4c1,3.9,2.3,7.5,3.5,11.3c1.2-3.8,2.6-7.3,3.4-11.2
	c-1-0.2-1.9-0.3-2.9-0.5C303,92.1,303,91.7,303.1,91.2z"/>
<path class="st2" d="M347.6,93c3.9,1.2,8.3,2.5,11.6,4.9c-1.7,0-3.2-0.3-4.8-1c-2.2-0.9-4.4-1.7-6.5-2.7
	C347.7,93.7,347.6,93.3,347.6,93z"/>
<path class="st2" d="M256.1,93.4c-1.9,2.1-4.3,2.6-6.9,3.6c-1.6,0.6-3,0.9-4.7,0.9C248,95.6,252,94.1,256.1,93.4z"/>
<path class="st2" d="M346.4,95.6c2.7,0.5,5.1,1.7,7.7,2.8c1.5,0.7,2.8,1.5,3.9,2.7c-2.7-0.4-5.1-1.6-7.6-2.7
	C348.9,97.6,347.5,96.8,346.4,95.6z"/>
<path class="st2" d="M257.3,95.9c-1.9,1.7-4.3,2.6-6.6,3.7c-1.6,0.7-3.3,1.3-5,1.7c0.7-0.8,1.4-1.5,2.3-2c1.3-0.7,2.7-1.2,4-1.9
	C253.6,96.6,255.3,95.9,257.3,95.9z"/>
<path class="st2" d="M258.5,98.2c-1.2,1.1-2.5,2-4,2.7c-2.6,1.2-4.6,2.7-7.6,2.9c2-1.9,4.8-3.1,7.2-4.3
	C255.6,98.8,257,98.4,258.5,98.2z"/>
<path class="st2" d="M345.2,98.1c0.8,0.1,1.6,0.2,2.5,0.5c1.3,0.4,2.6,1.2,3.8,1.8c1.9,0.9,3.6,2,5,3.5c-3.8-1-7.4-2.9-10.6-5.2
	C345.7,98.5,345.5,98.3,345.2,98.1z"/>
<path class="st2" d="M344,100.1c0.3,0.1,0.5,0.1,0.8,0.2c2.3,0.7,4.3,2.1,6.4,3.3c1.5,0.8,2.7,1.8,3.8,3c-2.5-0.4-4.7-2-6.9-3.1
	C346.6,102.6,345.1,101.6,344,100.1z"/>
<path class="st2" d="M259.6,100.5c-1.9,1.9-4.2,3.1-6.5,4.4c-1.4,0.8-2.9,1.4-4.4,1.8c1.9-2.3,4.4-3.4,6.9-4.9
	C256.8,101.1,258.2,100.7,259.6,100.5z"/>
<path class="st2" d="M261,102.4c-1.2,1.5-2.6,2.7-4.3,3.7c-2.1,1.3-4,2.7-6.5,3.5c1.4-2.1,3.4-3.2,5.5-4.5
	C257.4,104,259.1,103,261,102.4z"/>
<path class="st2" d="M342.5,102.3c0.3,0.1,0.5,0.2,0.8,0.2c2.1,0.7,3.8,1.9,5.6,3.1c1.6,1,3.1,2.1,4.2,3.7c-1.4-0.4-2.7-1-3.9-1.8
	C346.8,105.9,344.4,104.6,342.5,102.3z"/>
<path class="st2" d="M262.6,104.6c-1.6,2.1-3.6,3.4-5.7,4.9c-1.5,1.1-3.1,2.1-4.8,2.7c1.7-2.5,4-3.8,6.4-5.6
	C259.7,105.7,261.1,105.1,262.6,104.6z"/>
<path class="st2" d="M341.1,104.5c2.9,0.7,4.7,2.6,7.1,4.2c1.4,1,2.5,2.1,3.4,3.5c-1.4-0.5-2.7-1.3-4-2.2
	C345.3,108.3,343,106.9,341.1,104.5z"/>
<path class="st2" d="M264,106.5c-1.4,2.3-3.7,3.9-5.7,5.6c-1.3,1-2.7,1.9-4.2,2.5c1.4-2.2,3.4-3.6,5.4-5.2
	C260.9,108.3,262.4,107.2,264,106.5z"/>
<path class="st2" d="M339.7,106.6c0.3,0.1,0.6,0.2,0.9,0.4c1.8,0.8,3.2,2.1,4.7,3.3c1.7,1.3,3.2,2.6,4.4,4.5c-1.8-0.7-3.3-1.8-4.8-3
	c-1.7-1.4-3.4-2.5-4.7-4.3C340,107.1,339.9,106.8,339.7,106.6z"/>
<path class="st2" d="M265.5,108.7c-0.8,1.4-1.7,2.5-2.9,3.6c-2.1,1.9-4,3.7-6.4,5.2c0.5-1.2,1.1-2.3,2.1-3.2
	C260.6,112.2,262.6,110,265.5,108.7z"/>
<path class="st2" d="M338,108.7c2.7,0.8,4.1,2.6,6.1,4.3c1.3,1.1,2.4,2.5,3.3,3.9c-2.5-1.1-4.3-2.9-6.3-4.8
	c-0.9-0.9-1.8-1.8-2.6-2.7C338.4,109.2,338.2,109,338,108.7z"/>
<path class="st2" d="M336.6,110.3c1.6,1.1,3,2.4,4.4,3.8c1.6,1.5,3.1,3.1,4.3,5c-2.3-1.1-4-2.8-5.7-4.6c-1.1-1.2-2.3-2-2.7-3.6
	C336.7,110.7,336.6,110.5,336.6,110.3z"/>
<path class="st2" d="M267.4,110.5c-0.8,1.4-1.8,2.7-3,3.9c-1.9,1.9-3.6,3.7-5.9,5c1.2-2.3,3.2-4.2,5-5.9c0.9-0.9,2-1.8,3.1-2.5
	C266.9,110.8,267.1,110.6,267.4,110.5z"/>
<path class="st2" d="M269.2,112c-0.9,2.8-3,4.4-4.8,6.6c-1.1,1.3-2.3,2.2-3.8,3c1.2-2.3,3-4.1,4.7-6c1-1.2,2.1-2.3,3.4-3.2
	C268.8,112.3,269,112.2,269.2,112z"/>
<path class="st2" d="M334.5,112.3c2.5,1.3,3.9,3.4,5.8,5.4c1.2,1.2,2.1,2.4,2.5,4.1c-1.5-1.1-2.8-2.4-4-3.7c-1.4-1.6-3-3.1-4-5
	C334.7,112.7,334.6,112.5,334.5,112.3z"/>
<path class="st2" d="M332.6,113.6c2.3,1.8,3.8,4.2,5.8,6.4c0.9,1.1,1.5,2.3,1.9,3.6c-2.4-1.7-4-4.2-5.9-6.4
	c-0.8-0.9-1.4-1.8-1.6-2.9C332.7,114.1,332.7,113.8,332.6,113.6z"/>
<path class="st2" d="M271.2,113.8c-0.6,1.4-1.3,2.7-2.3,3.9c-1.7,2.1-3.6,4.5-5.8,6.1c0.9-2.3,2.5-4.2,4-6.1c1-1.2,2-2.4,3.2-3.3
	C270.7,114.1,271,114,271.2,113.8z"/>
<path class="st2" d="M273.1,115.2c-0.1,0.9-0.3,1.7-0.7,2.5c-0.6,1-1.4,2-2.1,3c-1.3,1.9-2.7,3.7-4.6,5.1c0.6-1.6,1.3-3,2.3-4.3
	c1.5-2,2.9-4.1,4.6-5.8C272.7,115.5,272.9,115.3,273.1,115.2z"/>
<path class="st2" d="M330.4,115.4c2.2,1.5,3.4,3.6,5,5.7c1,1.4,1.9,2.9,2.5,4.5c-1.3-0.9-2.4-1.9-3.3-3.2
	C333.1,120,331.3,118,330.4,115.4z"/>
<path class="st2" d="M328.3,116.8c2.4,1.6,3.5,4,5.1,6.4c0.9,1.4,1.5,2.7,1.7,4.3c-2-2-3.4-4.3-4.9-6.7
	C329.4,119.5,328.7,118.2,328.3,116.8z"/>
<path class="st2" d="M275,117c-0.5,2.8-2.1,4.7-3.6,7.1c-0.8,1.3-1.9,2.4-3.1,3.3c0.9-2.5,2.4-4.9,3.9-7.1c0.7-0.9,1.3-1.9,2.1-2.7
	C274.6,117.4,274.8,117.2,275,117z"/>
<path class="st2" d="M277.6,118.2c-0.7,2.8-2.2,5-3.6,7.5c-0.8,1.4-1.8,2.6-3,3.6c0.8-2.9,2.3-5.3,3.8-7.9
	C275.6,120.1,276.5,119.1,277.6,118.2z"/>
<path class="st2" d="M325.9,118.2c0.2,0.2,0.5,0.3,0.7,0.5c1.5,1.1,2.2,2.6,3.1,4.2c1.2,2,2.3,4,3,6.3c-1.2-1.1-2.3-2.3-3.1-3.7
	c-1.1-2-2.5-4.1-3.3-6.3C326.1,118.8,326,118.5,325.9,118.2z"/>
<path class="st2" d="M279.8,119.4c-0.5,2.8-1.8,5.2-3.1,7.7c-0.7,1.4-1.6,2.6-2.8,3.6c0.8-3.4,2.5-6.5,4.3-9.4
	C278.6,120.6,279.1,119.9,279.8,119.4z"/>
<path class="st2" d="M324,119.4c0.2,0.2,0.4,0.4,0.6,0.6c2.3,2.9,4.2,6.8,5.1,10.4c-2.1-2-3.1-4.4-4.4-6.9
	C324.5,122.2,324.2,120.8,324,119.4z"/>
<path class="st2" d="M282.2,120.4c-0.5,2.7-1.6,5-2.6,7.4c-0.7,1.7-1.6,3.1-3,4.3c0.5-2.5,1.5-4.7,2.5-7c0.7-1.5,1.4-3,2.6-4.2
	C281.9,120.8,282.1,120.6,282.2,120.4z"/>
<path class="st2" d="M321.5,120.5c2.2,1.9,2.7,4.2,3.9,6.7c0.8,1.6,1.2,3,1.3,4.8c-1.1-1.4-1.9-2.8-2.6-4.4c-0.9-2-2-4.1-2.4-6.3
	C321.6,121,321.6,120.8,321.5,120.5z"/>
<path class="st2" d="M284.6,121.4c-0.7,4.2-2.3,8.4-4.6,12c-0.1-3.2,1.3-5.7,2.4-8.6C282.9,123.5,283.7,122.4,284.6,121.4z"/>
<path class="st2" d="M319.3,121.4c2.5,3.4,3.9,7.7,4.6,11.8c-1-1.1-1.9-2.4-2.4-3.8C320.5,126.7,319.3,124.4,319.3,121.4z"/>
<path class="st2" d="M316.9,122.3c0.1,0.2,0.3,0.4,0.4,0.6c0.9,1.7,1.6,3.5,2.2,5.3c0.6,1.9,1.1,3.9,1.3,5.9
	c-0.9-1.2-1.6-2.4-2.1-3.8c-0.6-1.9-1.3-3.8-1.8-5.8C316.8,123.8,316.9,123.1,316.9,122.3z"/>
<path class="st2" d="M286.6,122.5c0.3,2.9-0.9,5.1-1.7,7.9c-0.5,1.5-1.2,2.8-2.3,3.9c0.8-3.8,1.8-7.6,3.5-11.1
	C286.3,123,286.4,122.8,286.6,122.5z"/>
<path class="st2" d="M314.3,122.9c1.4,2.2,2.1,4.6,2.7,7.1c0.4,1.7,0.7,3.4,0.8,5.2c-2.1-3.4-3-7.6-3.4-11.5
	C314.3,123.4,314.3,123.2,314.3,122.9z"/>
<path class="st2" d="M289.4,123.2c-0.1,2.5-0.8,4.7-1.4,7.2c-0.4,1.7-1,3.4-2.1,4.8c0.1-2.5,0.8-4.8,1.4-7.2
	C287.7,126.2,288.3,124.6,289.4,123.2z"/>
<path class="st2" d="M291.8,123.7c0.1,2.6-0.3,5.2-1,7.7c-0.4,1.6-0.8,3-1.5,4.5c-0.4-3,0.4-5.5,0.9-8.3
	C290.5,126.2,291,124.9,291.8,123.7z"/>
<path class="st2" d="M311.7,123.4c1,1.4,1.5,3,1.9,4.7c0.5,2.6,1.2,5.3,1.2,8c-1-1.4-1.6-3-1.9-4.7
	C312.4,128.7,311.5,126.3,311.7,123.4z"/>
<path class="st2" d="M294.6,124.1c0,4.1-1,8.2-1.7,12.2c-0.3-0.2-0.9-0.3-1-0.6c0-0.7,0.2-1.5,0.3-2.2c0.4-2.2,0.6-4.4,1-6.6
	C293.3,125.9,293.9,125,294.6,124.1z"/>
<path class="st2" d="M309.5,124.2c0.9,1.7,1.1,3.7,1.4,5.5c0.4,2.3,0.8,4.6,0.6,6.9c-1.8-2.7-1.6-5.6-2.2-8.7
	C309.1,126.7,309.2,125.4,309.5,124.2z"/>
<path class="st2" d="M297,124.3c0.1,2.5,0.1,5-0.2,7.5c-0.2,1.7-0.5,3.4-1.1,5c-0.6-1.6-0.6-3.1-0.4-4.8c0.4-2.5,0.1-4.8,1.3-7.1
	C296.7,124.7,296.9,124.5,297,124.3z"/>
<path class="st2" d="M306.8,124.3c0.9,1.9,1.2,4,1.5,6.2c0.2,2.1,0.3,4.3-0.2,6.4c-0.5-1.5-0.8-3-1-4.5
	C306.6,129.7,306.5,127,306.8,124.3z"/>
<path class="st2" d="M299.7,124.4c0.6,3,0.2,5.7-0.1,8.6c-0.1,1.4-0.4,2.8-0.8,4.2c-0.8-3.1-0.6-6.2-0.3-9.3c0.1-1,0.4-1.9,0.8-2.8
	C299.4,124.9,299.5,124.7,299.7,124.4z"/>
<path class="st2" d="M302.3,124.7c0.4,3.9,0.2,8,0.2,12c-0.4,0-0.8,0-1.3,0c-0.2-3.1-0.3-6.3-0.1-9.5c0-0.8,0.3-1.3,0.8-1.9
	C302,125.1,302.2,124.9,302.3,124.7z"/>
<path class="st2" d="M304.6,124.7c0.9,3.8,0.6,8,0.7,12c-0.4,0-0.7-0.1-1.1-0.1c-0.1-2.9-0.3-5.7-0.4-8.6c0-0.9,0.1-1.8,0.5-2.6
	C304.4,125.1,304.5,124.9,304.6,124.7z"/>
</svg>
